<svg xmlns="http://www.w3.org/2000/svg"  viewBox="0 0 80 80" width="150px" height="150px"><path fill="#030000" d="M39.979,76c-0.27,0-0.52-0.11-0.71-0.29c-0.18-0.19-0.29-0.45-0.29-0.71 c0-0.26,0.11-0.52,0.29-0.71c0.28-0.27,0.721-0.37,1.09-0.21c0.12,0.05,0.23,0.12,0.33,0.21c0.091,0.1,0.16,0.2,0.21,0.33 c0.051,0.12,0.08,0.25,0.08,0.38c0,0.27-0.109,0.52-0.29,0.71c-0.1,0.09-0.21,0.16-0.33,0.21C40.24,75.97,40.109,76,39.979,76 z"/><path fill="#030000" d="M40,76c-0.271,0-0.53-0.11-0.71-0.29c-0.19-0.19-0.3-0.45-0.3-0.71c0-0.26,0.109-0.52,0.3-0.71 c0.04-0.04,0.1-0.08,0.149-0.12c0.051-0.04,0.11-0.07,0.17-0.09c0.061-0.03,0.131-0.05,0.19-0.06c0.13-0.02,0.26-0.03,0.39,0 c0.061,0.01,0.13,0.03,0.19,0.06c0.06,0.02,0.12,0.05,0.17,0.09s0.1,0.08,0.15,0.12C40.89,74.48,41,74.74,41,75 c0,0.26-0.11,0.52-0.3,0.71C40.52,75.89,40.26,76,40,76z"/><path fill="#030000" d="M36.1,73.7c-0.46-0.31-0.58-0.93-0.27-1.39l0,0c0.31-0.46,0.93-0.58,1.39-0.27l0,0 c0.45,0.31,0.57,0.93,0.271,1.39l0,0c-0.2,0.28-0.511,0.44-0.83,0.44l0,0C36.47,73.87,36.27,73.81,36.1,73.7z M32.819,71.4 c-0.449-0.33-0.55-0.95-0.22-1.4l0,0c0.32-0.45,0.95-0.54,1.391-0.22l0,0c0.449,0.33,0.55,0.95,0.22,1.4l0,0 c-0.19,0.27-0.5,0.41-0.811,0.41l0,0C33.2,71.59,32.99,71.53,32.819,71.4z M29.63,68.98c-0.44-0.35-0.51-0.98-0.17-1.41l0,0 c0.34-0.43,0.97-0.51,1.399-0.17l0,0c0.44,0.35,0.511,0.98,0.171,1.41l0,0c-0.2,0.25-0.49,0.38-0.79,0.38l0,0 C30.03,69.19,29.81,69.12,29.63,68.98z M26.53,66.43c-0.421-0.36-0.471-1-0.101-1.41l0,0c0.351-0.42,0.99-0.47,1.4-0.11h0.01 c0.41,0.36,0.46,0.99,0.1,1.41l0,0c-0.199,0.23-0.479,0.35-0.76,0.35l0,0C26.95,66.67,26.72,66.59,26.53,66.43z M23.55,63.74 L23.55,63.74L23.55,63.74c-0.4-0.38-0.42-1.02-0.04-1.42l0,0c0.38-0.4,1.01-0.41,1.41-0.03l0,0 c0.399,0.37,0.42,1.01,0.04,1.41l0,0c-0.19,0.21-0.46,0.31-0.73,0.31l0,0C23.99,64.01,23.74,63.92,23.55,63.74z M20.7,60.9 L20.7,60.9L20.7,60.9c-0.381-0.4-0.36-1.04,0.04-1.42l0,0c0.399-0.38,1.04-0.36,1.409,0.04l0,0 c0.381,0.4,0.37,1.04-0.029,1.42l0,0c-0.2,0.18-0.44,0.27-0.69,0.27l0,0C21.16,61.21,20.899,61.11,20.7,60.9z M18.02,57.88 L18.02,57.88L18.02,57.88c-0.35-0.42-0.29-1.05,0.141-1.4l0,0c0.42-0.36,1.05-0.3,1.399,0.13l0,0c0.36,0.42,0.3,1.05-0.13,1.4 l0,0c-0.189,0.16-0.41,0.24-0.64,0.24l0,0C18.51,58.25,18.22,58.12,18.02,57.88z M15.569,54.67 c-0.319-0.45-0.21-1.08,0.24-1.39l0,0c0.45-0.32,1.08-0.21,1.391,0.24l0,0c0.319,0.45,0.21,1.08-0.24,1.4l0,0 c-0.18,0.12-0.38,0.18-0.57,0.18l0,0C16.069,55.1,15.76,54.95,15.569,54.67z M13.399,51.23c-0.27-0.49-0.09-1.1,0.391-1.36 l0,0c0.479-0.27,1.09-0.1,1.359,0.38l0,0c0.271,0.49,0.091,1.1-0.39,1.37l0,0c-0.15,0.08-0.32,0.12-0.479,0.12l0,0 C13.93,51.74,13.58,51.56,13.399,51.23z M11.64,47.53L11.64,47.53L11.64,47.53c-0.2-0.51,0.05-1.09,0.561-1.3l0,0 c0.52-0.2,1.1,0.05,1.3,0.57l0,0c0.2,0.51-0.05,1.09-0.561,1.29l0,0c-0.12,0.05-0.25,0.08-0.37,0.08l0,0 C12.17,48.17,11.8,47.92,11.64,47.53z M10.439,43.58c0,0,0,0,0.011,0l0,0c-0.12-0.54,0.229-1.07,0.77-1.18l0,0 c0.54-0.11,1.07,0.23,1.18,0.77l0,0c0.12,0.54-0.229,1.07-0.77,1.19l0,0c-0.07,0.01-0.14,0.02-0.21,0.02l0,0 C10.96,44.38,10.54,44.06,10.439,43.58z"/><path fill="#030000" d="M11.01,40.46c-0.27,0-0.53-0.11-0.71-0.3c-0.05-0.04-0.09-0.1-0.13-0.15 c-0.03-0.05-0.061-0.11-0.09-0.17c-0.021-0.06-0.04-0.13-0.05-0.19c-0.021-0.06-0.021-0.13-0.021-0.2 c0-0.26,0.1-0.52,0.29-0.7c0.28-0.28,0.72-0.37,1.09-0.22c0.12,0.05,0.23,0.12,0.32,0.22c0.189,0.18,0.29,0.44,0.29,0.7 c0,0.27-0.101,0.53-0.29,0.71c-0.09,0.09-0.2,0.17-0.32,0.22C11.27,40.43,11.14,40.46,11.01,40.46z"/><path fill="#030000" d="M25.046,31.19c0,0-0.808,1.967-0.808,4.109s0.632,3.161,0.632,3.161s-4.495,1.37-5.794-3.336 l0.948,0.316l-0.948-5.162c0,0-0.703-0.45-2.209-0.838s-3.76-0.104-4.043-1.015c-0.113-0.447,0-0.716,0-0.716 s-0.597-1.194-0.283-2.059c0,0-0.716-0.403-0.716-1.626s0.761-1.552,1.164-1.552c1.596,0,7.202,3.098,7.979,4.036 C21.744,27.446,22.453,31.611,25.046,31.19z M43.674,46.644l-0.892-0.621c-2.814,0.382-7.766,2.723-7.766,4.917 c0,2.397,2.266,2.661,2.266,2.661c1.276,1.012,2.375,6.071,2.375,6.071s-6.533-1.65-7.808-1.496 c-1.276,0.154-0.814,3.211-0.814,3.211l0.528,0.154v1.056l1.408,0.154c0.066,0.77,0.528,1.254,0.528,1.254 c0.915,0,2.134-1.804,2.134-1.804l6.841-0.99c0.44-0.88,0.264-4.465,0.396-5.565c0.089-0.741,1.046-1.282,1.662-1.556 C43.653,49.664,43.674,46.644,43.674,46.644z M63.962,48.264c0,1.579-1.024,3.337-2.768,3.337c-3.584,0-5.607-2.874-5.607-2.874 s0.532,5.216,0.532,7.416c0,2.2,5.074,3.797,5.074,3.797l-3.3,8.41c-1.81,0.177-4.329,1.81-5.145,1.81 c-0.816,0-0.816-0.461-0.816-0.461l-0.852-0.39c0-2.094,2.058-3.726,2.803-3.726c0.745,0,1.348,1.171,1.348,1.171H55.8 c0.639-0.532,0.816-5.252,0.816-5.252s-1.774-0.781-6.032,0.852c-5.145,0-5.571-16.181-5.571-16.181 c-2.874-2.307-9.218-2.588-9.218-2.588s-2.982,5.21-4.833,5.21c-1.851,0-6.375-4.216-7.678-4.216s-4.901,3.976-6.135,3.976 c-1.234,0-1.165-0.548-1.165-0.548s-0.548,0.343-0.548-0.754c0-1.097,0.411-2.022,0.411-2.022s-1.611,1.063-1.611-0.925 c0-1.988,3.016-3.057,3.016-3.057c1.782,0.336,9.94,0.212,9.94,0.212s-1.577-2.159-1.577-5.69c0-3.53,1.72-6.435,1.72-6.435 s-1.536-0.431-1.536-1.536c0-1.105,0.621-2.123,0.621-2.123s-0.052,1.432,1.536,1.432c1.588,0,4.714-1.781,4.714-1.781 c-1.437-0.629-3.563,0.15-3.563,0.15c0-0.868-1.288-2.335-1.288-2.335l1.018-0.569l0.779,0.569h2.785 c-0.299-3.773-4.372-2.096-4.372-2.096l-2.336-2.845l-0.269-1.886c0,0,2.126,0.749,3.982,0c1.856-0.749,1.587-2.156,1.707-2.276 c0.12-0.12,7.336,0,7.336,0l2.964,0.719c1.587-0.359,3.084-2.216,3.084-2.216s0.786,0.822,1.533,2.047 c-0.249,1.111-2.068,2.011-2.068,2.011c0.23,0.766,2.042,3.629,2.042,5.007c0,1.379-2.655,8.377-2.655,10.407 s1.302,2.317,1.302,2.317c-0.44,0.881-1.781,0.364-1.781,0.364l0.013,0.976C45.049,36.52,60.52,54.46,60.52,47.627 c0-4.968-10.432-16.147-10.432-22.161c0-4.258,2.768-4.914,5.003-4.914c1.006,0,2.377,4.4,2.377,4.4s-0.938,1.916-3.123,1.916 c0,0-0.36-2.906-1.127-2.906c-0.328,0-0.647,0.611-0.647,2.977C52.571,33.249,63.962,43.322,63.962,48.264z M35.079,15.363 l-3.416,0.161l0.848,1.72L35.079,15.363z"/><g><path fill="#030000" d="M43.04,8c-0.26,0-0.521-0.11-0.7-0.3c-0.19-0.18-0.3-0.44-0.3-0.7c0-0.13,0.029-0.26,0.08-0.38 c0.05-0.13,0.12-0.24,0.22-0.33c0.27-0.28,0.72-0.37,1.09-0.22c0.061,0.03,0.11,0.06,0.17,0.1c0.05,0.03,0.101,0.07,0.15,0.12 c0.189,0.19,0.29,0.45,0.29,0.71c0,0.26-0.101,0.52-0.29,0.7c-0.05,0.05-0.101,0.09-0.15,0.13 c-0.06,0.04-0.109,0.07-0.17,0.09C43.3,7.97,43.17,8,43.04,8z"/><path fill="#030000" d="M62.27,10.77c-0.39-0.39-0.399-1.02-0.02-1.42l0,0c0.39-0.39,1.02-0.4,1.42-0.02l0,0 c0.39,0.39,0.399,1.02,0.02,1.42l0,0c-0.199,0.2-0.46,0.3-0.72,0.3l0,0C62.72,11.05,62.47,10.95,62.27,10.77z M59.24,7.81 c-0.4-0.38-0.41-1.02-0.021-1.41l0,0C59.6,6,60.24,6,60.63,6.38l0,0c0.4,0.39,0.41,1.02,0.02,1.41l0,0 C60.46,8,60.2,8.1,59.939,8.1l0,0C59.68,8.1,59.43,8,59.24,7.81z M54.74,7c0-0.56,0.449-1,1-1l0,0c0.55,0,1,0.44,1,1l0,0 c0,0.55-0.45,1-1,1l0,0C55.189,8,54.74,7.55,54.74,7z M50.51,7c0-0.56,0.45-1,1-1l0,0c0.55,0,1,0.44,1,1l0,0 c0,0.55-0.45,1-1,1l0,0C50.96,8,50.51,7.55,50.51,7z M46.28,7c0-0.56,0.439-1,1-1l0,0c0.55,0,1,0.44,1,1l0,0 c0,0.55-0.45,1-1,1l0,0C46.72,8,46.28,7.55,46.28,7z"/><path fill="#030000" d="M66.01,14c-0.27,0-0.53-0.11-0.71-0.29C65.109,13.52,65,13.27,65,13 c0-0.26,0.109-0.52,0.3-0.71c0.09-0.09,0.2-0.16,0.32-0.21c0.18-0.08,0.39-0.1,0.58-0.06c0.06,0.01,0.13,0.03,0.189,0.06 c0.061,0.02,0.12,0.05,0.17,0.09s0.11,0.08,0.15,0.12c0.05,0.05,0.09,0.1,0.13,0.15c0.03,0.06,0.06,0.12,0.09,0.18 c0.021,0.06,0.04,0.12,0.061,0.18c0.01,0.07,0.02,0.14,0.02,0.2c0,0.07-0.01,0.13-0.02,0.2c-0.021,0.06-0.04,0.12-0.061,0.18 c-0.03,0.06-0.06,0.12-0.09,0.18c-0.04,0.05-0.08,0.1-0.13,0.15c-0.04,0.04-0.101,0.08-0.15,0.12 c-0.05,0.04-0.109,0.07-0.17,0.09c-0.06,0.03-0.13,0.05-0.189,0.06C66.14,13.99,66.069,14,66.01,14z"/></g><g><path fill="none" stroke="#030000" stroke-linecap="round" stroke-linejoin="round" stroke-miterlimit="10" stroke-width="2" d="M11.006,39.454c0-4.637,0-12.364,0-12.364s8.075-2.442,10.738-7.715c0.776-1.537-0.332-3.365-2.037-3.365h0 c-0.861,0-1.623,0.508-2.029,1.277C16.728,19.085,13.995,19,13.995,19v-6l6.17-6.002h16.792L39.995,10l3.048-3.002"/><path fill="none" stroke="#030000" stroke-linecap="round" stroke-linejoin="round" stroke-miterlimit="10" stroke-width="2" d="M66.005,13v6c0,0-2.732,0.085-3.683-1.714c-0.406-0.769-1.168-1.277-2.029-1.277h0c-1.705,0-2.813,1.829-2.037,3.365 c2.663,5.274,10.738,7.715,10.738,7.715s0,7.728,0,12.364C68.994,58.001,39.979,75,39.979,75h0.016"/></g></svg>