<?xml version="1.0" standalone="no"?>
<!DOCTYPE svg PUBLIC "-//W3C//DTD SVG 20010904//EN"
 "http://www.w3.org/TR/2001/REC-SVG-20010904/DTD/svg10.dtd">
<svg version="1.0" xmlns="http://www.w3.org/2000/svg"
 width="100.000000pt" height="100.000000pt" viewBox="0 0 100.000000 100.000000"
 preserveAspectRatio="xMidYMid meet">

<g transform="translate(0.000000,100.000000) scale(0.100000,-0.100000)"
fill="#000000" stroke="none">
<path d="M293 783 c-59 -146 -77 -199 -67 -201 8 -2 14 -16 14 -36 0 -17 5
-37 11 -43 5 -5 9 -36 7 -69 -4 -54 -5 -56 -12 -26 -7 27 -13 32 -37 32 -27 0
-29 3 -29 40 0 33 -3 40 -20 40 -17 0 -20 -7 -20 -40 0 -36 -3 -40 -25 -40
-34 0 -75 -80 -75 -148 0 -36 -5 -54 -20 -67 -17 -15 -20 -31 -20 -102 l0 -83
500 0 500 0 0 202 c0 179 -3 217 -27 340 -15 76 -30 138 -34 138 -3 0 -12 -34
-19 -75 -7 -41 -16 -75 -20 -75 -4 0 -13 34 -20 75 -7 41 -16 75 -20 75 -4 0
-13 -34 -20 -75 -7 -41 -16 -75 -20 -75 -3 0 -17 56 -30 125 -13 69 -26 125
-30 125 -7 0 -81 -376 -80 -412 0 -16 -4 -28 -10 -28 -6 0 -10 33 -10 80 0 73
-2 80 -20 80 -18 0 -20 7 -20 80 0 73 -2 80 -20 80 -18 0 -20 -7 -20 -80 l0
-80 -30 0 c-23 0 -30 5 -30 19 0 11 6 21 14 23 10 2 -8 55 -67 201 -45 108
-84 197 -87 197 -3 0 -42 -89 -87 -197z m65 -206 c3 -32 0 -37 -17 -37 -17 0
-21 6 -21 33 0 61 33 63 38 4z m80 0 c3 -32 0 -37 -17 -37 -17 0 -21 6 -21 33
0 61 33 63 38 4z m-40 -160 c3 -32 0 -37 -17 -37 -17 0 -21 6 -21 33 0 61 33
63 38 4z m80 0 c3 -32 0 -37 -17 -37 -17 0 -21 6 -21 33 0 61 33 63 38 4z m80
0 c3 -32 0 -37 -17 -37 -17 0 -21 6 -21 33 0 61 33 63 38 4z"/>
</g>
</svg>
