<svg xmlns="http://www.w3.org/2000/svg"  viewBox="0 0 80 80" width="150px" height="150px"><path d="M67.997,37.6c-1.576,0-8.323-5.798-8.323-5.798s4.424,1.116,5.454,1.116c1.03,0,2.788-0.086,2.788-0.086 c1.596-0.929,4.04-3.838,4.04-4.485c0-0.646-0.364-0.727-0.364-0.727s-1.172,1.293-2.868,1.293c-1.697,0-6.687-2.545-6.687-2.545 l5.515-0.909c2.566-3.01,3.45-7.435,3.178-8.396c-0.272-0.962-0.803-0.816-0.803-0.816c0,5.534-7.335,3.976-7.335,3.976 c1.775-1.328,2.575-2.638,2.575-5.068c0-3.804-2.34-3.259-2.34-3.259s0.428,0.237,0.428,1.554 c-0.116,2.181-8.655,4.246-11.514,5.615c-2.859,1.369-2.641,4.687-2.641,4.687s2.9,0.789,2.622,3.991 c-0.199,2.288-4.236,3.942-6.532,4.704c-0.513-2.052-3.157-4.599-3.512-5.233c-0.401-0.717-0.252-1.432-0.252-1.432l2.415,0.079 l0.513,1.248l0.945-1.899l-0.639-1.665l-7.683-2.781c0,0-4.788,2.659-4.788,4.501c0,1.175,0.602,1.777,0.602,1.777l0.545-0.917 c0,0,1.978,2.927,1.978,4.59c0,1.024-0.148,1.724-0.265,2.142c-1.246-0.341-7.619-2.224-7.871-5.113 c-0.278-3.202,2.622-3.991,2.622-3.991s0.218-3.318-2.641-4.687c-2.859-1.369-11.398-3.434-11.514-5.615 c0-1.317,0.428-1.554,0.428-1.554s-2.34-0.545-2.34,3.259c0,2.43,0.8,3.74,2.575,5.068c0,0-7.335,1.558-7.335-3.976 c0,0-0.53-0.145-0.803,0.816c-0.272,0.962,0.612,5.386,3.178,8.396l5.515,0.909c0,0-4.99,2.545-6.687,2.545 c-1.697,0-2.868-1.293-2.868-1.293s-0.364,0.081-0.364,0.727c0,0.646,2.444,3.555,4.04,4.485c0,0,1.757,0.086,2.788,0.086 s5.454-1.116,5.454-1.116S12.483,37.6,10.907,37.6c-1.576,0-2.202-0.263-2.202-0.263s-0.646,1.273,3.272,2.808 c3.919,1.535,9.393-2.101,9.393-2.101s-3.957,5.813-5.666,5.813c-0.804,0-1.849-0.156-1.849-0.156s0.758,3.006,4.762,3.006 c3.631,0,8.281-5.646,8.281-5.646s-1.621,8.456-5.786,8.456c0,0-0.326,1.368,2.204,1.368c1.405,0,1.46-0.791,2.256-0.791 c0.796,0,0.679,0.17,1.45,0.17c1.99,0,4.551-7.511,4.551-7.511s-1.218,6.367-2.782,7.584c0,0,1.135,0.317,1.997-0.707 c1.711-1.463,3.017-7.286,3.851-7.286c1.513,0-0.825,11.303-6.282,11.303c-1.318,0-2.136-1.44-3.311-1.44 c-1.175,0-1.498,0.991-1.498,1.74c0,0.749,0.484,0.979,0.484,0.979s0.392-1.083,0.91-1.083c0.519,0,0.807,0.576,0.807,0.576 s-1.302-0.173-1.302,1.014c0,1.187,0.184,1.198,0.184,1.198s0.553-0.899,1.164-0.899s1.867,1.394,2.765,1.394 c0.899,0,1.021-0.278,1.021-0.278l0.136,0.278c0,0-0.866,1.047-1.308,1.047c0,0-0.119,0.425,1.121,0.425 c1.24,0,1.903-1.308,1.903-1.716s-1.393-0.781-1.393-1.257s2.956-1.07,4.366-1.07v1.682c0,0,1.682-0.629,2.123-2.038 c0.442-1.41,1.614-3.261,1.614-3.261s-1.51,7.661-4.041,7.661c-0.971,0-0.655-1.596-0.655-1.596s-0.953,0.357-0.953,1.995 c0,1.638,1.608,2.353,2.323,2.353c0.715,0,1.995-1.37,1.995-1.37s0.089,1.638,0.625,3.008c0.536,1.37,2.012,5.152,2.012,5.152 h0.001c0,0,1.476-3.782,2.012-5.152c0.536-1.37,0.625-3.008,0.625-3.008s1.281,1.37,1.995,1.37c0.715,0,2.323-0.715,2.323-2.353 c0-1.638-0.953-1.995-0.953-1.995s0.316,1.596-0.655,1.596c-2.531,0-4.041-7.661-4.041-7.661s1.172,1.852,1.614,3.261 c0.442,1.41,2.123,2.038,2.123,2.038v-1.682c1.41,0,4.366,0.595,4.366,1.07s-1.393,0.849-1.393,1.257s0.662,1.716,1.903,1.716 s1.121-0.425,1.121-0.425c-0.442,0-1.308-1.047-1.308-1.047l0.136-0.278c0,0,0.123,0.278,1.021,0.278 c0.899,0,2.155-1.394,2.765-1.394s1.164,0.899,1.164,0.899s0.184-0.012,0.184-1.198c0-1.187-1.302-1.014-1.302-1.014 s0.288-0.576,0.807-0.576c0.518,0,0.91,1.083,0.91,1.083s0.484-0.23,0.484-0.979c0-0.749-0.323-1.74-1.498-1.74 c-1.175,0-1.993,1.44-3.311,1.44c-5.456,0-7.795-11.303-6.282-11.303c0.835,0,2.141,5.822,3.851,7.286 c0.862,1.023,1.997,0.707,1.997,0.707c-1.564-1.217-2.782-7.584-2.782-7.584s2.562,7.511,4.551,7.511 c0.771,0,0.654-0.17,1.45-0.17c0.796,0,0.851,0.791,2.256,0.791c2.53,0,2.204-1.368,2.204-1.368c-4.165,0-5.786-8.456-5.786-8.456 s4.649,5.646,8.281,5.646c4.004,0,4.762-3.006,4.762-3.006s-1.046,0.156-1.849,0.156c-1.709,0-5.666-5.813-5.666-5.813 s5.474,3.636,9.393,2.101c3.919-1.535,3.272-2.808,3.272-2.808S69.572,37.6,67.997,37.6z M40.702,23.002l-0.945,1.305l-1.44-1.664 L40.702,23.002z"/><path fill="#030000" d="M24.344,64.254c-0.13,0-0.261-0.025-0.388-0.079c-13.104-5.504-14.077-20.3-14.111-20.927 c-0.023-0.421,0.219-0.811,0.606-0.976c0.388-0.165,0.837-0.069,1.124,0.24c0.002,0.001,1.688,1.61,6.77,1.61c0.553,0,1,0.448,1,1 s-0.447,1-1,1c-2.956,0-4.951-0.495-6.237-1.022c0.732,4.067,3.388,13.353,12.624,17.231c0.509,0.214,0.748,0.8,0.534,1.309 C25.105,64.023,24.734,64.254,24.344,64.254z"/><path fill="#030000" d="M54.583,64.254c-0.391,0-0.762-0.23-0.922-0.613c-0.214-0.509,0.025-1.095,0.534-1.309 c9.236-3.879,11.892-13.164,12.624-17.231c-1.287,0.527-3.281,1.022-6.237,1.022c-0.553,0-1-0.448-1-1s0.447-1,1-1 c5.082,0,6.766-1.609,6.782-1.625c0.296-0.292,0.747-0.378,1.122-0.209c0.377,0.17,0.618,0.547,0.595,0.96 c-0.034,0.627-1.005,15.423-14.11,20.927C54.844,64.229,54.713,64.254,54.583,64.254z"/><path fill="#030000" d="M68.071,20.329c-0.162,0-0.327-0.04-0.48-0.124L42.749,6.572c0,0.016,0,0.031,0,0.047 c0,0.37,0.335,1.629,0.645,2.585c0.019,0.056,0.031,0.113,0.039,0.171c0.173,1.24-0.255,2.507-1.144,3.39 c-1.556,1.545-4.086,1.546-5.644,0c-0.887-0.882-1.314-2.148-1.144-3.389c0.009-0.065,0.024-0.13,0.046-0.193 c0.245-0.704,0.635-2.034,0.635-2.608c0-0.004,0-0.008,0-0.012l-24.86,13.643c-0.487,0.268-1.092,0.088-1.358-0.396 c-0.266-0.484-0.088-1.092,0.396-1.357L36.47,4.124c0.254-0.139,0.554-0.161,0.822-0.064c0.271,0.098,0.485,0.308,0.59,0.575 c0.031,0.079,0.301,0.799,0.301,1.94c0,0.995-0.549,2.688-0.71,3.161c-0.055,0.593,0.159,1.19,0.583,1.61 c0.778,0.774,2.047,0.773,2.823,0c0.427-0.423,0.641-1.023,0.582-1.618C41.26,9.1,40.749,7.425,40.749,6.619 c0-1.095,0.266-1.862,0.296-1.946c0.099-0.275,0.313-0.493,0.587-0.596c0.274-0.103,0.578-0.081,0.835,0.059l26.087,14.316 c0.483,0.266,0.661,0.874,0.396,1.357C68.767,20.141,68.425,20.329,68.071,20.329z"/><path fill="#030000" d="M39.069,75.69c-0.479-0.27-0.649-0.88-0.38-1.36l0,0c0.28-0.48,0.891-0.65,1.37-0.38l0,0 c0.48,0.28,0.65,0.89,0.38,1.37l0,0c0,0,0,0-0.01,0l0,0c-0.18,0.32-0.52,0.5-0.87,0.5l0,0 C39.399,75.82,39.229,75.78,39.069,75.69z M36.39,72.79L36.39,72.79L36.39,72.79c-0.399-0.39-0.41-1.02-0.03-1.42l0,0 c0.381-0.4,1.021-0.41,1.41-0.02h0.011c0.39,0.38,0.399,1.01,0.02,1.41l0,0c-0.19,0.2-0.46,0.31-0.72,0.31l0,0 C36.83,73.07,36.58,72.97,36.39,72.79z M41.43,72.48c-0.37-0.41-0.34-1.04,0.07-1.42l0,0c0.399-0.37,1.03-0.34,1.41,0.07l0,0 c0.37,0.4,0.34,1.04-0.061,1.41l0,0c0,0,0,0-0.01,0l0,0c-0.19,0.18-0.43,0.26-0.67,0.26l0,0C41.899,72.8,41.63,72.69,41.43,72.48 z M33.42,70.28L33.42,70.28L33.42,70.28c-0.44-0.34-0.53-0.96-0.19-1.4l0,0c0.33-0.44,0.96-0.53,1.4-0.19l0,0 c0.439,0.33,0.52,0.96,0.189,1.4l0,0c-0.199,0.26-0.5,0.39-0.8,0.39l0,0C33.81,70.48,33.6,70.42,33.42,70.28z M44.479,69.87 c-0.33-0.44-0.239-1.07,0.21-1.4l0,0c0.44-0.32,1.07-0.23,1.391,0.21l0,0c0.33,0.45,0.239,1.08-0.21,1.4l0,0 c-0.17,0.14-0.38,0.2-0.59,0.2l0,0C44.97,70.28,44.67,70.14,44.479,69.87z M30.2,68c-0.46-0.31-0.58-0.93-0.28-1.39l0,0 c0.31-0.46,0.93-0.59,1.39-0.28l0,0c0.46,0.31,0.58,0.93,0.28,1.39l0,0c-0.2,0.29-0.51,0.44-0.84,0.44l0,0 C30.56,68.16,30.37,68.11,30.2,68z M47.74,67.54c-0.311-0.46-0.181-1.08,0.279-1.38l0,0c0.471-0.3,1.08-0.17,1.391,0.29l0,0 c0.3,0.46,0.17,1.08-0.29,1.38l0,0C48.95,67.94,48.76,68,48.569,68l0,0C48.25,68,47.93,67.84,47.74,67.54z M26.85,65.87 c-0.47-0.29-0.62-0.9-0.33-1.37l0,0c0.28-0.48,0.9-0.63,1.37-0.34l0,0c0.47,0.28,0.62,0.9,0.34,1.37l0,0 c-0.189,0.31-0.52,0.48-0.859,0.48l0,0C27.189,66.01,27.02,65.97,26.85,65.87z M51.109,65.38c-0.279-0.47-0.13-1.08,0.351-1.37 l0,0c0.47-0.28,1.08-0.13,1.37,0.35l0,0c0.279,0.47,0.13,1.08-0.351,1.37l0,0c0,0,0,0,0.011,0l0,0 c-0.171,0.09-0.341,0.14-0.521,0.14l0,0C51.63,65.87,51.3,65.7,51.109,65.38z"/></svg>