<svg xmlns="http://www.w3.org/2000/svg"  viewBox="0 0 80 80" width="150px" height="150px"><path fill="#030000" d="M40,76c-0.35,0-0.678-0.183-0.859-0.481c-0.023-0.04-0.045-0.081-0.063-0.124 c-2.021-3.664-13.176-7.332-17.329-8.441c-0.349-0.093-0.62-0.366-0.71-0.715c-0.091-0.349,0.014-0.719,0.272-0.97l3.051-2.95 c0.398-0.384,1.03-0.372,1.414,0.023c0.384,0.397,0.373,1.03-0.023,1.414l-1.803,1.743c3.852,1.142,12.696,4.075,16.047,7.789 c3.351-3.714,12.195-6.647,16.047-7.789l-1.803-1.743c-0.241-0.233-0.35-0.573-0.287-0.903c0.062-0.33,0.285-0.607,0.595-0.737 C63.944,58.169,66.874,44.926,67.7,39.4c-1.19,0.817-2.787,1.619-4.468,1.619c-1.643,0-2.438-0.814-2.814-1.498 c-2.452-4.439,6.007-18.304,7.728-21.038c0.295-0.466,0.913-0.609,1.379-0.313c0.468,0.294,0.608,0.911,0.314,1.379 c-4.018,6.385-9.053,16.503-7.671,19.006c0.077,0.139,0.257,0.465,1.064,0.465c2.066,0,4.331-1.939,5.029-2.686 c0.29-0.31,0.743-0.403,1.129-0.234c0.389,0.168,0.628,0.563,0.6,0.985c-0.058,0.84-1.504,19.961-13.322,26.237l2.014,1.947 c0.259,0.25,0.363,0.621,0.272,0.97c-0.09,0.349-0.361,0.622-0.71,0.715c-4.144,1.107-15.257,4.76-17.314,8.416 c-0.021,0.051-0.046,0.102-0.074,0.149C40.674,75.817,40.35,76,40,76z"/><path fill="#030000" d="M16.76,41.003c-3.349,0-6.363-3.185-6.49-3.321c-0.377-0.403-0.355-1.035,0.047-1.412 c0.404-0.376,1.037-0.356,1.413,0.045c0.025,0.027,2.555,2.687,5.03,2.687c0.808,0,0.987-0.326,1.064-0.465 c1.382-2.503-3.653-12.621-7.671-19.006c-0.148-0.237-0.191-0.525-0.118-0.795c0.073-0.27,0.256-0.497,0.505-0.625l27-14 c0.342-0.176,0.755-0.142,1.062,0.088c0.307,0.231,0.454,0.618,0.379,0.996l-0.895,4.475l1.91,1.911l1.91-1.911l-0.895-4.476 c-0.108-0.542,0.243-1.068,0.784-1.176c0.546-0.108,1.068,0.243,1.177,0.785l1,5c0.065,0.328-0.037,0.667-0.273,0.903 l-2.922,2.921c-0.365,0.454-1.15,0.466-1.534,0.029l-2.95-2.951c-0.236-0.236-0.339-0.575-0.273-0.903l0.592-2.957L12.419,19.391 c2.505,4.095,9.399,16.052,7.155,20.115C19.197,40.189,18.402,41.003,16.76,41.003z"/><path fill="#030000" d="M68.328,64.525c0,0,1.224,7.943-4.719,7.943c-9.795,0-13.225-8.954-17.227-16.321l0.391,0.073 c0.238-0.079,10.618,1.948,10.618,1.948c-2.618-24.056-29.663-21.862-29.663-33.903c0-1.068,1.939-2.434,4.362-2.434 c4.617,0,10.926,4.953,10.926,4.953l1.06,3.524l6.601,3.844l1.644-1.854l-1.591,0.239l-2.624-2.677 c2.386-1.723,6.707-1.166,6.707-1.166l-0.106,1.405c1.352-0.716,3.155-2.81,3.155-2.81l-8.514-4.92l-4.816-0.341 c0,0-4.157-2.602-5.691-4.946c0,0-6.517-0.013-8.799,0.114c-2.312,0.128-6.008,8.455-5.88,10.671 c0.128,2.216,1.704,6.222,2.002,6.649c2.685,4.773,24.932,13.766,25.785,18.965c0,0-2.685-0.909-7.63-0.872 C41.532,48.261,38.071,44,32.149,44c-2.064,0-4.914-0.035-4.914-0.035s-4.213,3.782-5.123,11.125c0,0,8.923,5.065,18.141,2.028 c4.975,6.691,10.101,14.945,11.5,15.337c0,0,18.248,6.327,18.248-6.327C70,66.128,69.36,64.828,68.328,64.525z M49.375,24.508 l3.122,1.929l-1.332,0.696c0,0-2.008-0.696-2.187-1.054C48.977,26.079,48.52,25.641,49.375,24.508z M26.456,48.677 c0,0,8.212-0.394,10.754,4.487C27.656,54.657,26.456,48.677,26.456,48.677z"/><path fill="#030000" d="M68.99,20c-0.131,0-0.261-0.03-0.381-0.08c-0.119-0.05-0.229-0.12-0.329-0.21 c-0.091-0.1-0.16-0.2-0.211-0.33c-0.05-0.12-0.079-0.25-0.079-0.38c0-0.27,0.109-0.52,0.29-0.71c0.1-0.09,0.21-0.16,0.329-0.21 c0.181-0.08,0.381-0.1,0.58-0.06c0.061,0.01,0.12,0.03,0.181,0.06c0.069,0.02,0.12,0.05,0.18,0.09c0.05,0.04,0.1,0.08,0.15,0.12 c0.189,0.19,0.29,0.45,0.29,0.71c0,0.13-0.021,0.26-0.07,0.38c-0.061,0.13-0.13,0.23-0.22,0.33c-0.051,0.04-0.101,0.09-0.15,0.12 c-0.06,0.04-0.11,0.07-0.18,0.09c-0.061,0.03-0.12,0.05-0.181,0.06C69.12,19.99,69.06,20,68.99,20z"/><path fill="#030000" d="M65.16,18.14c-0.49-0.26-0.681-0.86-0.431-1.35l0,0c0.25-0.49,0.86-0.68,1.351-0.43l0,0 c0.489,0.26,0.68,0.86,0.42,1.35l0,0c-0.17,0.34-0.521,0.54-0.88,0.54l0,0C65.46,18.25,65.3,18.21,65.16,18.14z M61.78,16.39 c-0.49-0.26-0.681-0.86-0.431-1.35l0,0c0.26-0.49,0.86-0.68,1.351-0.43l0,0c0.489,0.26,0.68,0.86,0.43,1.35l0,0 c-0.18,0.34-0.53,0.54-0.89,0.54l0,0C62.08,16.5,61.93,16.46,61.78,16.39z M58.41,14.64c-0.5-0.26-0.69-0.86-0.431-1.35l0,0 c0.25-0.49,0.86-0.68,1.351-0.43l0,0c0.489,0.26,0.68,0.86,0.42,1.35l0,0c-0.181,0.34-0.521,0.54-0.891,0.54l0,0 C58.71,14.75,58.55,14.71,58.41,14.64z M55.03,12.89c-0.49-0.26-0.681-0.86-0.431-1.35l0,0c0.26-0.49,0.86-0.68,1.351-0.43l0,0 c0.489,0.26,0.68,0.86,0.43,1.35l0,0C56.2,12.8,55.85,13,55.49,13l0,0C55.34,13,55.18,12.96,55.03,12.89z M51.66,11.14 c-0.49-0.26-0.69-0.86-0.431-1.35l0,0c0.25-0.49,0.86-0.68,1.351-0.43l0,0c0.489,0.26,0.68,0.86,0.42,1.35l0,0 c-0.17,0.34-0.521,0.54-0.891,0.54l0,0C51.96,11.25,51.8,11.21,51.66,11.14z M48.28,9.39C47.79,9.13,47.6,8.53,47.85,8.04l0,0 c0.26-0.49,0.86-0.68,1.351-0.43l0,0c0.489,0.26,0.68,0.86,0.43,1.35l0,0C49.45,9.3,49.1,9.5,48.74,9.5l0,0 C48.59,9.5,48.43,9.46,48.28,9.39z M44.91,7.64c-0.49-0.26-0.681-0.86-0.431-1.35l0,0c0.25-0.49,0.86-0.68,1.351-0.43l0,0 c0.489,0.26,0.68,0.86,0.42,1.35l0,0c-0.17,0.34-0.521,0.54-0.891,0.54l0,0C45.21,7.75,45.05,7.71,44.91,7.64z"/><path fill="#030000" d="M41.99,6c-0.061,0-0.131-0.01-0.19-0.02c-0.07-0.01-0.13-0.03-0.19-0.06 c-0.06-0.02-0.119-0.05-0.17-0.09C41.38,5.8,41.33,5.75,41.29,5.71c-0.19-0.19-0.3-0.45-0.3-0.71c0-0.13,0.029-0.26,0.079-0.38 c0.051-0.12,0.12-0.23,0.221-0.33c0.04-0.04,0.09-0.08,0.149-0.12c0.051-0.04,0.11-0.07,0.17-0.09 c0.061-0.03,0.12-0.05,0.19-0.06c0.13-0.03,0.26-0.03,0.39,0c0.061,0.01,0.12,0.03,0.181,0.06c0.06,0.02,0.12,0.05,0.18,0.09 c0.05,0.04,0.1,0.08,0.15,0.12c0.09,0.1,0.159,0.21,0.21,0.33c0.06,0.12,0.08,0.25,0.08,0.38c0,0.26-0.11,0.52-0.29,0.71 C42.649,5.75,42.6,5.8,42.55,5.83c-0.06,0.04-0.12,0.07-0.18,0.09c-0.061,0.03-0.12,0.05-0.181,0.06C42.12,5.99,42.06,6,41.99,6z"/><g><path fill="#030000" d="M11,38c-0.13,0-0.26-0.03-0.38-0.08c-0.12-0.05-0.23-0.12-0.33-0.21C10.109,37.52,10,37.27,10,37 c0-0.26,0.109-0.52,0.29-0.71c0.1-0.09,0.21-0.16,0.33-0.21c0.359-0.16,0.81-0.07,1.09,0.21C11.89,36.48,12,36.74,12,37 c0,0.07-0.01,0.13-0.021,0.2c-0.01,0.06-0.029,0.12-0.06,0.18c-0.021,0.06-0.05,0.12-0.09,0.17c-0.04,0.06-0.08,0.11-0.12,0.16 C11.52,37.89,11.26,38,11,38z"/><path fill="#030000" d="M21.109,61.89c-0.439-0.33-0.529-0.96-0.199-1.4l0,0c0.33-0.44,0.96-0.53,1.399-0.2l0,0l0,0l0,0 c0.44,0.33,0.53,0.96,0.2,1.4l0,0c-0.2,0.27-0.5,0.4-0.8,0.4l0,0C21.5,62.09,21.29,62.03,21.109,61.89z M18.14,59.11 c-0.359-0.41-0.32-1.04,0.101-1.41l0,0c0.409-0.36,1.05-0.32,1.409,0.1l0,0l0,0l0,0c0.36,0.41,0.32,1.05-0.1,1.41l0,0 c-0.19,0.16-0.42,0.25-0.65,0.25l0,0C18.62,59.46,18.34,59.34,18.14,59.11z M15.76,55.87h0.01c-0.3-0.48-0.149-1.09,0.32-1.38 l0,0c0.47-0.29,1.09-0.15,1.38,0.32l0,0c0.29,0.47,0.14,1.09-0.33,1.38l0,0c-0.16,0.1-0.34,0.15-0.52,0.15l0,0 C16.28,56.34,15.95,56.17,15.76,55.87z M13.899,52.34L13.899,52.34c-0.229-0.5-0.01-1.1,0.49-1.33l0,0 c0.51-0.23,1.101,0,1.33,0.5l0,0l0,0l0,0c0.23,0.5,0,1.1-0.5,1.33l0,0c-0.13,0.06-0.27,0.08-0.41,0.08l0,0 C14.43,52.92,14.06,52.71,13.899,52.34z M12.439,48.65c-0.17-0.53,0.11-1.09,0.63-1.27l0,0c0.521-0.18,1.091,0.1,1.271,0.62l0,0 c0.17,0.53-0.11,1.1-0.63,1.27l0,0c-0.11,0.04-0.21,0.06-0.32,0.06l0,0C12.97,49.33,12.58,49.06,12.439,48.65z M11.33,44.86 c-0.13-0.54,0.189-1.08,0.729-1.22l0,0c0.54-0.13,1.08,0.2,1.21,0.73l0,0c0.141,0.54-0.189,1.08-0.729,1.21l0,0 c-0.08,0.02-0.16,0.03-0.24,0.03l0,0C11.85,45.61,11.45,45.31,11.33,44.86z M10.52,41L10.52,41c-0.09-0.54,0.271-1.06,0.811-1.16 l0,0c0.55-0.09,1.06,0.27,1.16,0.82l0,0l0,0l0,0c0.09,0.54-0.271,1.06-0.811,1.15l0,0c-0.06,0.01-0.12,0.02-0.17,0.02l0,0 C11.03,41.83,10.6,41.49,10.52,41z"/><path fill="#030000" d="M25.06,64.02c-0.27,0-0.52-0.1-0.71-0.29c-0.09-0.09-0.17-0.2-0.22-0.33 c-0.05-0.12-0.07-0.25-0.07-0.38c0-0.13,0.021-0.26,0.07-0.38c0.05-0.12,0.13-0.23,0.22-0.33c0.37-0.37,1.04-0.37,1.41,0 c0.1,0.1,0.17,0.21,0.22,0.33c0.051,0.12,0.08,0.25,0.08,0.38c0,0.13-0.029,0.26-0.08,0.38c-0.05,0.13-0.12,0.24-0.22,0.33 C25.58,63.92,25.319,64.02,25.06,64.02z"/></g></svg>