<svg xmlns="http://www.w3.org/2000/svg"  viewBox="0 0 80 80" width="150px" height="150px"><path d="M64.261,32.89l5.044-0.366l2.543,1.829c0,2.012-0.818,2.979-0.818,2.979c-0.231-0.946-0.967-1.777-0.967-1.777 c0.34,2.065-1.254,3.319-1.254,3.319c0.052-1.96-1.803-2.929-3.91-2.929c-2.022,0-2.417,5.122-6.493,7.828l0.902,0.397 c-2.128,2.2-5.663,1.407-5.663,1.407c0.325-1.623,2.85-8.874,2.85-8.874C60.721,36.648,64.261,32.89,64.261,32.89z M39.382,55.603 l-3.252,2.666c0,0,8.667-0.073,12.183,1.597c0,0,0.333-0.903,0.142-1.581c-0.156-0.556-0.781-1.1-0.781-1.1 s1.541,0.644,2.198,1.465c0.527-0.591,1.201-3.545-0.996-3.545C46.678,55.105,43.308,56.042,39.382,55.603z M58.954,25.736 c-0.504,1.591-8.652,20.058-7.837,25.179l0.615,0.428c0,0,4.262-2.246,5.874-0.269c0,0,1.071,3.108-1.037,5.529 c0,0,0.134-2.764-2.361-2.764c-2.496,0-3.072,0.787-3.072,0.787l-4.07-5.932l-0.538,1.363c0,0-3.11-2.822-2.515-6.431 c0,0-1.862,1.382-2.323,3.398c-0.461,2.016,0.058,4.511,0.058,4.511s-9.458,7.244-9.669,8.319c0,0,12.414,0.588,12.414,3.929 c0,3.598-2.433,3.327-2.433,3.327l-0.813-0.844c0,0-0.934,0.723-1.627,1.054c0,0,0.572-4.428-6.416-4.428 c-3.796,0-4.154,1.235-4.154,1.235s-1.841-4.037-3.498-4.398c0,0,2.289,5.392,0.813,8.435l-0.813-0.934 c0,0-0.633,3.25-0.633,4.907c0,2.134,2.44,1.449,2.44,1.449s0.181,1.235-1.627,1.235c-1.807,0-6.693-5.18-6.693-22.115 c0-10.044,3.27-23.126,10.103-23.126c6.832,0,10.933,0.358,10.933,0.358l2.785-2.26c0,0-1.963-2.078-5.068-2.078 c-3.105,0-8.399-2.055-8.743-4.737c0,0,11.144-4.776,19.104-4.776c0,0,3.184-1.592,7.96-1.592c0,0,0,1.592-1.592,3.184 c0,0,4.776,3.184,4.776,4.776C59.299,22.456,59.458,24.145,58.954,25.736z M43.447,19.524c0,0-1.644-0.274-2.719-0.148 c-1.075,0.127-2.003,1.307-1.982,1.318c0,0,0.611,0.611,1.855,0.611C42.762,21.305,43.447,19.524,43.447,19.524z"/><path fill="#030000" d="M40.003,75.996c-0.315,0-0.617-0.148-0.806-0.4c-4.533-6.043-18.48-10.749-18.621-10.795 c-0.147-0.049-0.281-0.132-0.391-0.242C12.113,56.486,8.905,42.377,8.773,41.781c-0.1-0.451,0.121-0.912,0.536-1.115 c0.416-0.203,0.915-0.096,1.21,0.259c0.267,0.317,1.223,1.23,2.055,1.23c1.2,0,1.681-0.528,1.938-0.924 c2.344-3.613-2.153-15.63-4.083-19.956c-0.225-0.504,0.001-1.096,0.505-1.321c0.504-0.225,1.096,0.001,1.321,0.505 c0.756,1.693,7.289,16.689,3.935,21.859c-0.779,1.202-2.03,1.836-3.616,1.836c-0.404,0-0.79-0.078-1.148-0.203 c1.298,4.399,4.465,13.368,10.013,19.027C23.276,63.613,34.851,67.753,40,73.434c5.477-6.042,18.223-10.342,18.791-10.531 c0.525-0.176,1.09,0.109,1.265,0.632c0.174,0.524-0.108,1.09-0.632,1.265c-0.141,0.047-14.088,4.752-18.621,10.795 C40.614,75.848,40.318,75.996,40.003,75.996z"/><path fill="#030000" d="M67.427,44.156c-1.586,0-2.837-0.635-3.616-1.836c-3.089-4.762,2.211-17.863,3.656-21.222 c-7.721-7.504-18.461-12.965-21.969-14.64c-0.968,2.932-4.491,5.304-4.949,5.603c-0.324,0.212-0.773,0.212-1.098,0 c-0.532-0.347-5.195-3.489-5.195-7.056c0-0.552,0.448-1,1-1s1,0.448,1,1c0,1.83,2.385,3.985,3.745,4.999 c1.394-1.033,3.743-3.158,3.743-4.999c0-0.338,0.17-0.653,0.453-0.837c0.282-0.186,0.639-0.214,0.949-0.078 c0.593,0.261,14.646,6.498,24.22,16.072c0.293,0.293,0.375,0.736,0.206,1.115c-1.93,4.326-6.427,16.343-4.083,19.956 c0.258,0.397,0.739,0.924,1.938,0.924c0.832,0,1.788-0.913,2.057-1.233c0.355-0.42,0.986-0.476,1.407-0.124 c0.423,0.353,0.481,0.98,0.129,1.404C70.854,42.403,69.343,44.156,67.427,44.156z"/><g><path fill="#030000" d="M59.24,63.75c-0.41-0.37-0.44-1.01-0.07-1.42l0,0c0.37-0.4,1.01-0.43,1.41-0.06l0,0 c0.41,0.37,0.44,1,0.07,1.41l0,0c-0.2,0.22-0.47,0.33-0.74,0.33l0,0C59.67,64.01,59.43,63.92,59.24,63.75z M61.82,60.69 c-0.45-0.31-0.56-0.93-0.24-1.39l0,0c0.31-0.45,0.94-0.56,1.39-0.25l0,0c0.45,0.32,0.56,0.94,0.25,1.4l0,0 c-0.2,0.28-0.51,0.42-0.82,0.42l0,0C62.2,60.87,62,60.82,61.82,60.69z M64.02,57.35c-0.48-0.27-0.65-0.88-0.38-1.36l0,0 c0.26-0.48,0.87-0.66,1.36-0.39l0,0c0.48,0.27,0.65,0.88,0.38,1.36l0,0c-0.18,0.33-0.52,0.52-0.87,0.52l0,0 C64.34,57.48,64.18,57.44,64.02,57.35z M65.9,53.81c-0.5-0.23-0.73-0.82-0.49-1.32l0,0c0.23-0.5,0.82-0.72,1.32-0.49l0,0 c0.5,0.23,0.72,0.82,0.49,1.32l0,0c-0.17,0.37-0.53,0.58-0.91,0.58l0,0C66.17,53.9,66.03,53.88,65.9,53.81z M67.5,50.15 c-0.51-0.2-0.77-0.78-0.57-1.3l0,0c0.19-0.51,0.77-0.77,1.29-0.57l0,0c0.51,0.2,0.77,0.77,0.58,1.29l0,0 c-0.16,0.4-0.54,0.64-0.94,0.64l0,0C67.74,50.21,67.62,50.19,67.5,50.15z M68.88,46.38c-0.53-0.16-0.82-0.72-0.66-1.25l0,0 c0.17-0.53,0.73-0.82,1.26-0.65l0,0c0.52,0.16,0.82,0.72,0.65,1.25l0,0l0,0l0,0c-0.13,0.43-0.53,0.7-0.95,0.7l0,0 C69.08,46.43,68.98,46.41,68.88,46.38z M70.03,42.54c-0.54-0.12-0.88-0.65-0.75-1.19l0,0c0.11-0.54,0.65-0.88,1.19-0.76l0,0 c0.54,0.12,0.88,0.65,0.76,1.19l0,0c-0.11,0.47-0.52,0.78-0.98,0.78l0,0C70.18,42.56,70.11,42.56,70.03,42.54z"/><path fill="#030000" d="M10.63,21.58c-0.39-0.4-0.39-1.03,0-1.42l0,0c0.39-0.39,1.03-0.39,1.42,0l0,0 c0.39,0.39,0.39,1.02,0,1.42l0,0c-0.2,0.19-0.45,0.29-0.71,0.29l0,0C11.09,21.87,10.83,21.77,10.63,21.58z M13.52,18.8 c-0.36-0.42-0.31-1.05,0.1-1.41l0,0c0.42-0.36,1.05-0.31,1.41,0.11l0,0c0.37,0.41,0.32,1.05-0.1,1.41l0,0 c-0.19,0.16-0.42,0.24-0.65,0.24l0,0C14,19.15,13.72,19.03,13.52,18.8z M16.59,16.24c-0.33-0.44-0.25-1.07,0.19-1.4l0,0l0,0 l0,0c0.44-0.34,1.07-0.25,1.4,0.19l0,0c0.34,0.43,0.26,1.06-0.18,1.4l0,0c-0.19,0.14-0.4,0.2-0.61,0.2l0,0 C17.09,16.63,16.79,16.5,16.59,16.24z M19.81,13.85c-0.31-0.45-0.2-1.07,0.26-1.39l0,0c0.45-0.31,1.07-0.19,1.39,0.26l0,0 c0.31,0.46,0.19,1.08-0.26,1.39l0,0c-0.17,0.12-0.37,0.18-0.57,0.18l0,0C20.32,14.29,20,14.14,19.81,13.85z M23.14,11.63 c-0.3-0.47-0.15-1.09,0.31-1.38l0,0c0.47-0.29,1.09-0.15,1.38,0.32l0,0c0.29,0.46,0.15,1.08-0.32,1.38l0,0 c-0.16,0.1-0.34,0.15-0.53,0.15l0,0C23.65,12.1,23.33,11.93,23.14,11.63z M26.55,9.54c-0.27-0.48-0.11-1.09,0.38-1.37l0,0 c0.48-0.27,1.08-0.1,1.36,0.38l0,0c0.27,0.48,0.11,1.09-0.37,1.36l0,0c-0.16,0.09-0.33,0.13-0.5,0.13l0,0 C27.07,10.04,26.74,9.86,26.55,9.54z M30.05,7.58c-0.26-0.48-0.07-1.09,0.42-1.34l0,0c0.49-0.26,1.09-0.07,1.35,0.42l0,0 c0.26,0.49,0.07,1.09-0.42,1.35l0,0c-0.15,0.08-0.31,0.11-0.46,0.11l0,0C30.58,8.12,30.23,7.93,30.05,7.58z"/></g></svg>